<svg xmlns="http://www.w3.org/2000/svg" viewBox="0 0 210 297" width="2100" height="2970" preserveAspectRatio="xMidYMid slice">
  <defs>
    <linearGradient id="sky" x1="0" y1="0" x2="0" y2="1">
      <stop offset="0%" stop-color="#dceef0"/>
      <stop offset="35%" stop-color="#eef5f2"/>
      <stop offset="100%" stop-color="#f7f4ef"/>
    </linearGradient>
    <linearGradient id="ground" x1="0" y1="0" x2="0" y2="1">
      <stop offset="0%" stop-color="#b8d9a8"/>
      <stop offset="55%" stop-color="#8fc48a"/>
      <stop offset="100%" stop-color="#6aaf72"/>
    </linearGradient>
    <linearGradient id="hillL" x1="0" y1="0" x2="0" y2="1">
      <stop offset="0%" stop-color="#9ec9c0"/>
      <stop offset="100%" stop-color="#7eb3a8"/>
    </linearGradient>
    <linearGradient id="hillR" x1="0" y1="0" x2="0" y2="1">
      <stop offset="0%" stop-color="#b0d0c4"/>
      <stop offset="100%" stop-color="#8fbfb0"/>
    </linearGradient>
  </defs>

  <!-- Full paper base (center will be masked out by CSS; edges remain) -->
  <rect width="210" height="297" fill="url(#sky)"/>

  <!-- Distant hills (upper-mid, for top/side edges) -->
  <path d="M0 155 C30 138 55 148 80 132 C110 112 140 125 170 118 C190 114 200 128 210 122 L210 200 L0 200 Z" fill="url(#hillL)" opacity="0.55"/>
  <path d="M0 175 C40 158 70 168 100 155 C130 142 160 160 210 148 L210 215 L0 215 Z" fill="url(#hillR)" opacity="0.5"/>

  <!-- Soft green field bottom edge -->
  <path d="M0 205 C50 188 90 200 130 192 C160 186 185 196 210 188 L210 297 L0 297 Z" fill="url(#ground)" opacity="0.9"/>

  <!-- Left bare tree (left edge) -->
  <g opacity="0.75" stroke="#6b5b4a" stroke-width="0.4" fill="none" stroke-linecap="round">
    <path d="M18 270 C20 230 16 200 24 165"/>
    <path d="M24 185 C12 178 8 168 4 155"/>
    <path d="M22 198 C32 190 40 180 46 168"/>
    <path d="M20 215 C8 210 4 200 2 188"/>
    <path d="M23 175 C30 166 36 155 40 145"/>
  </g>
  <g fill="#7a8a78" opacity="0.35">
    <ellipse cx="10" cy="268" rx="14" ry="5"/>
  </g>

  <!-- Right peach blossom tree (right edge) -->
  <g opacity="0.95">
    <path d="M178 275 C180 230 172 200 184 160 C190 142 194 130 198 115" fill="none" stroke="#7a5c48" stroke-width="0.9" stroke-linecap="round"/>
    <path d="M184 172 C170 164 158 148 152 135" fill="none" stroke="#7a5c48" stroke-width="0.5"/>
    <path d="M188 155 C198 142 206 132 210 118" fill="none" stroke="#7a5c48" stroke-width="0.45"/>
    <path d="M182 195 C168 188 156 178 148 165" fill="none" stroke="#8a6a52" stroke-width="0.4"/>
    <g fill="#ef9aab">
      <circle cx="152" cy="132" r="3.5"/><circle cx="160" cy="124" r="2.8"/>
      <circle cx="146" cy="142" r="2.6"/><circle cx="168" cy="138" r="3"/>
      <circle cx="174" cy="126" r="2.4"/><circle cx="158" cy="148" r="2.2"/>
      <circle cx="198" cy="112" r="3.2"/><circle cx="206" cy="120" r="2.6"/>
      <circle cx="202" cy="130" r="3"/><circle cx="190" cy="138" r="2.5"/>
      <circle cx="208" cy="140" r="2.2"/><circle cx="186" cy="118" r="2.3"/>
      <circle cx="176" cy="145" r="2.6"/><circle cx="166" cy="155" r="2"/>
      <circle cx="194" cy="150" r="2.4"/><circle cx="150" cy="158" r="1.8"/>
      <circle cx="182" cy="162" r="2.2"/><circle cx="170" cy="118" r="2"/>
    </g>
    <g fill="#f7c4ce">
      <circle cx="156" cy="128" r="1.5"/><circle cx="200" cy="116" r="1.4"/>
      <circle cx="172" cy="132" r="1.3"/><circle cx="188" cy="124" r="1.6"/>
    </g>
    <g fill="#ef9aab" opacity="0.85">
      <ellipse cx="138" cy="175" rx="1.3" ry="0.75" transform="rotate(-20 138 175)"/>
      <ellipse cx="128" cy="195" rx="1.1" ry="0.65" transform="rotate(15 128 195)"/>
      <ellipse cx="158" cy="205" rx="1.2" ry="0.7" transform="rotate(-10 158 205)"/>
      <ellipse cx="118" cy="220" rx="1" ry="0.6" transform="rotate(25 118 220)"/>
      <ellipse cx="142" cy="245" rx="1.1" ry="0.65" transform="rotate(-30 142 245)"/>
    </g>
  </g>

  <!-- Bottom grass -->
  <g fill="#4f9a58" opacity="0.55">
    <path d="M6 285 Q12 268 10 286 Q16 270 18 288 Q4 282 6 285"/>
    <path d="M28 288 Q34 270 32 290 Q38 272 42 292 Q24 286 28 288"/>
    <path d="M52 290 Q58 274 56 292 Q62 276 68 294 Q48 288 52 290"/>
    <path d="M175 286 Q182 268 180 288 Q186 270 192 290 Q170 282 175 286"/>
    <path d="M195 290 Q202 272 200 292 Q206 274 210 294 Q190 286 195 290"/>
  </g>

  <!-- Birds top-left corner -->
  <g fill="none" stroke="#5a6a78" stroke-width="0.5" stroke-linecap="round" opacity="0.7">
    <path d="M24 22 q5 -3.5 10 0"/><path d="M34 22 q5 -3.5 10 0"/>
    <path d="M48 32 q4 -3 8 0"/><path d="M56 32 q4 -3 8 0"/>
    <path d="M36 40 q3.5 -2.5 7 0"/><path d="M43 40 q3.5 -2.5 7 0"/>
  </g>
</svg>
